<svg width="1869" height="209" viewBox="0 0 1869 209" fill="none" xmlns="http://www.w3.org/2000/svg">
<mask id="path-1-outside-1_19_184" maskUnits="userSpaceOnUse" x="-0.899902" y="0" width="1870" height="209" fill="black">
<rect fill="white" x="-0.899902" width="1870" height="209"/>
<path d="M236.7 131.1C234.9 146.7 229.4 160 220.2 171C211 182 198.5 190.4 182.7 196.2C166.9 202 148.1 204.9 126.3 204.9C108.1 204.9 91.4001 202.8 76.2001 198.6C61.2001 194.4 48.2001 188.1 37.2001 179.7C26.4001 171.3 18.0001 160.9 12.0001 148.5C6.0001 135.9 3.0001 121.2 3.0001 104.4C3.0001 87.6 6.0001 72.9 12.0001 60.3C18.0001 47.7 26.4001 37.2 37.2001 28.8C48.2001 20.2 61.2001 13.8 76.2001 9.6C91.4001 5.19999 108.1 2.99999 126.3 2.99999C148.1 2.99999 166.9 5.99999 182.7 12C198.7 18 211.3 26.6 220.5 37.8C229.7 48.8 235.1 62.2 236.7 78H197.1C194.5 69.6 190.1 62.4 183.9 56.4C177.9 50.2 170.1 45.5 160.5 42.3C150.9 39.1 139.5 37.5 126.3 37.5C109.9 37.5 95.5001 40.1 83.1001 45.3C70.7001 50.3 61.1001 57.8 54.3001 67.8C47.5001 77.6 44.1001 89.8 44.1001 104.4C44.1001 118.8 47.5001 130.9 54.3001 140.7C61.1001 150.5 70.7001 158 83.1001 163.2C95.5001 168.2 109.9 170.7 126.3 170.7C139.5 170.7 150.8 169.1 160.2 165.9C169.8 162.7 177.6 158.1 183.6 152.1C189.8 146.1 194.3 139.1 197.1 131.1H236.7ZM275.63 201V6.9H407.33C422.33 6.9 435.33 8.99999 446.33 13.2C457.53 17.2 466.23 23.6 472.43 32.4C478.63 41 481.73 52.1 481.73 65.7C481.73 74.9 480.13 82.7 476.93 89.1C473.73 95.5 469.23 100.7 463.43 104.7C457.83 108.7 451.33 111.8 443.93 114C436.53 116 428.63 117.3 420.23 117.9L416.03 115.5C430.03 115.7 441.53 116.9 450.53 119.1C459.53 121.1 466.23 124.9 470.63 130.5C475.23 135.9 477.53 144 477.53 154.8V201H437.63V157.5C437.63 150.1 436.33 144.4 433.73 140.4C431.13 136.2 426.43 133.3 419.63 131.7C413.03 130.1 403.43 129.3 390.83 129.3H315.53V201H275.63ZM315.53 98.1H407.33C418.53 98.1 427.03 95.4 432.83 90C438.83 84.6 441.83 77.3 441.83 68.1C441.83 59.3 438.83 52.6 432.83 48C427.03 43.4 418.53 41.1 407.33 41.1H315.53V98.1ZM563.381 120V167.7H713.081V201H523.481V6.9H712.781V40.2H563.381V88.5H685.781V120H563.381ZM784.348 158.7V125.4H912.748V158.7H784.348ZM736.048 201L827.248 6.9H870.448L962.548 201H919.048L839.248 26.1H858.448L779.248 201H736.048ZM949.057 6.9H1153.66V40.2H949.057V6.9ZM1031.56 36H1071.46V201H1031.56V36ZM1283.22 204.9C1257.42 204.9 1235.32 200.9 1216.92 192.9C1198.72 184.7 1184.72 173.1 1174.92 158.1C1165.32 143.1 1160.52 125.1 1160.52 104.1C1160.52 82.9 1165.32 64.8 1174.92 49.8C1184.72 34.8 1198.72 23.3 1216.92 15.3C1235.32 7.09999 1257.42 2.99999 1283.22 2.99999C1309.22 2.99999 1331.32 7.09999 1349.52 15.3C1367.72 23.3 1381.62 34.8 1391.22 49.8C1401.02 64.8 1405.92 82.9 1405.92 104.1C1405.92 125.1 1401.02 143.1 1391.22 158.1C1381.62 173.1 1367.72 184.7 1349.52 192.9C1331.32 200.9 1309.22 204.9 1283.22 204.9ZM1283.22 170.4C1299.22 170.4 1313.22 168 1325.22 163.2C1337.42 158.4 1346.92 151.1 1353.72 141.3C1360.72 131.5 1364.22 119.1 1364.22 104.1C1364.22 89.1 1360.72 76.7 1353.72 66.9C1346.92 57.1 1337.42 49.8 1325.22 45C1313.22 40 1299.22 37.5 1283.22 37.5C1267.42 37.5 1253.32 40 1240.92 45C1228.52 49.8 1218.82 57.1 1211.82 66.9C1204.82 76.7 1201.32 89.1 1201.32 104.1C1201.32 119.1 1204.82 131.5 1211.82 141.3C1218.82 151.1 1228.52 158.4 1240.92 163.2C1253.32 168 1267.42 170.4 1283.22 170.4ZM1444.87 201V6.9H1576.57C1591.57 6.9 1604.57 8.99999 1615.57 13.2C1626.77 17.2 1635.47 23.6 1641.67 32.4C1647.87 41 1650.97 52.1 1650.97 65.7C1650.97 74.9 1649.37 82.7 1646.17 89.1C1642.97 95.5 1638.47 100.7 1632.67 104.7C1627.07 108.7 1620.57 111.8 1613.17 114C1605.77 116 1597.87 117.3 1589.47 117.9L1585.27 115.5C1599.27 115.7 1610.77 116.9 1619.77 119.1C1628.77 121.1 1635.47 124.9 1639.87 130.5C1644.47 135.9 1646.77 144 1646.77 154.8V201H1606.87V157.5C1606.87 150.1 1605.57 144.4 1602.97 140.4C1600.37 136.2 1595.67 133.3 1588.87 131.7C1582.27 130.1 1572.67 129.3 1560.07 129.3H1484.77V201H1444.87ZM1484.77 98.1H1576.57C1587.77 98.1 1596.27 95.4 1602.07 90C1608.07 84.6 1611.07 77.3 1611.07 68.1C1611.07 59.3 1608.07 52.6 1602.07 48C1596.27 43.4 1587.77 41.1 1576.57 41.1H1484.77V98.1ZM1679.82 135.6H1720.32C1721.12 142.4 1724.22 148.6 1729.62 154.2C1735.22 159.6 1742.52 163.9 1751.52 167.1C1760.52 170.1 1770.62 171.6 1781.82 171.6C1792.02 171.6 1800.42 170.5 1807.02 168.3C1813.62 166.1 1818.52 163 1821.72 159C1824.92 155 1826.52 150.2 1826.52 144.6C1826.52 139.2 1824.52 135.1 1820.52 132.3C1816.52 129.3 1810.22 126.9 1801.62 125.1C1793.02 123.1 1781.72 121.1 1767.72 119.1C1756.72 117.5 1746.32 115.3 1736.52 112.5C1726.72 109.5 1718.02 105.7 1710.42 101.1C1703.02 96.5 1697.12 90.9 1692.72 84.3C1688.52 77.5 1686.42 69.5 1686.42 60.3C1686.42 48.9 1689.62 38.9 1696.02 30.3C1702.62 21.7 1712.32 15 1725.12 10.2C1737.92 5.39999 1753.62 2.99999 1772.22 2.99999C1800.22 2.99999 1821.72 8.99999 1836.72 21C1851.92 32.8 1859.32 49.1 1858.92 69.9H1819.92C1819.12 58.1 1814.12 49.6 1804.92 44.4C1795.92 39.2 1784.52 36.6 1770.72 36.6C1757.92 36.6 1747.32 38.5 1738.92 42.3C1730.72 46.1 1726.62 52.6 1726.62 61.8C1726.62 65.4 1727.62 68.6 1729.62 71.4C1731.62 74 1735.02 76.3 1739.82 78.3C1744.62 80.3 1751.12 82.2 1759.32 84C1767.52 85.8 1777.72 87.6 1789.92 89.4C1801.32 91 1811.62 93.2 1820.82 96C1830.22 98.6 1838.22 102.1 1844.82 106.5C1851.62 110.7 1856.82 116.1 1860.42 122.7C1864.02 129.3 1865.82 137.4 1865.82 147C1865.82 158.8 1862.72 169.1 1856.52 177.9C1850.52 186.5 1841.12 193.2 1828.32 198C1815.72 202.8 1799.32 205.2 1779.12 205.2C1764.72 205.2 1752.02 203.7 1741.02 200.7C1730.02 197.5 1720.52 193.3 1712.52 188.1C1704.52 182.9 1698.02 177.2 1693.02 171C1688.02 164.8 1684.42 158.6 1682.22 152.4C1680.22 146.2 1679.42 140.6 1679.82 135.6Z"/>
</mask>
<path d="M236.7 131.1L239.68 131.444L240.066 128.1H236.7V131.1ZM220.2 171L217.899 169.075L220.2 171ZM76.2001 198.6L75.3912 201.489L75.4011 201.492L76.2001 198.6ZM37.2001 179.7L35.3583 182.068L35.3688 182.076L35.3794 182.084L37.2001 179.7ZM12.0001 148.5L9.29152 149.79L9.29554 149.798L9.29962 149.807L12.0001 148.5ZM37.2001 28.8L39.0419 31.1681L39.0479 31.1634L37.2001 28.8ZM76.2001 9.59999L77.009 12.4889L77.0217 12.4854L77.0343 12.4817L76.2001 9.59999ZM182.7 12L181.635 14.8046L181.647 14.809L182.7 12ZM220.5 37.8L218.182 39.7042L218.19 39.7145L218.199 39.7247L220.5 37.8ZM236.7 78V81H240.019L239.685 77.6977L236.7 78ZM197.1 78L194.234 78.8871L194.888 81H197.1V78ZM183.9 56.4L181.744 58.4863L181.779 58.5216L181.814 58.5558L183.9 56.4ZM160.5 42.3L161.449 39.4539H161.449L160.5 42.3ZM83.1001 45.3L84.222 48.0823L84.2412 48.0746L84.2603 48.0666L83.1001 45.3ZM54.3001 67.8L56.7649 69.5102L56.7729 69.4986L56.7809 69.4869L54.3001 67.8ZM54.3001 140.7L51.8353 142.41V142.41L54.3001 140.7ZM83.1001 163.2L81.9399 165.967L81.959 165.975L81.9782 165.982L83.1001 163.2ZM160.2 165.9L159.251 163.054L159.242 163.057L159.233 163.06L160.2 165.9ZM183.6 152.1L181.514 149.944L181.496 149.961L181.479 149.979L183.6 152.1ZM197.1 131.1V128.1H194.972L194.269 130.109L197.1 131.1ZM236.7 131.1L233.72 130.756C231.98 145.832 226.688 158.567 217.899 169.075L220.2 171L222.501 172.925C232.113 161.433 237.82 147.568 239.68 131.444L236.7 131.1ZM220.2 171L217.899 169.075C209.09 179.607 197.059 187.733 181.666 193.384L182.7 196.2L183.734 199.016C199.941 193.067 212.91 184.393 222.501 172.925L220.2 171ZM182.7 196.2L181.666 193.384C166.279 199.032 147.846 201.9 126.3 201.9V204.9V207.9C148.354 207.9 167.521 204.968 183.734 199.016L182.7 196.2ZM126.3 204.9V201.9C108.33 201.9 91.9025 199.826 76.9991 195.708L76.2001 198.6L75.4011 201.492C90.8977 205.774 107.871 207.9 126.3 207.9V204.9ZM76.2001 198.6L77.009 195.711C62.3295 191.601 49.683 185.458 39.0208 177.316L37.2001 179.7L35.3794 182.084C46.7172 190.742 60.0707 197.199 75.3912 201.489L76.2001 198.6ZM37.2001 179.7L39.0419 177.332C28.6085 169.217 20.5012 159.181 14.7006 147.193L12.0001 148.5L9.29962 149.807C15.499 162.619 24.1917 173.383 35.3583 182.068L37.2001 179.7ZM12.0001 148.5L14.7087 147.21C8.93567 135.087 6.0001 120.843 6.0001 104.4H3.0001H9.82285e-05C9.82285e-05 121.557 3.06453 136.713 9.29152 149.79L12.0001 148.5ZM3.0001 104.4H6.0001C6.0001 87.9566 8.93567 73.7131 14.7087 61.5898L12.0001 60.3L9.29152 59.0102C3.06453 72.0869 9.82285e-05 87.2434 9.82285e-05 104.4H3.0001ZM12.0001 60.3L14.7087 61.5898C20.5119 49.4031 28.6185 39.2752 39.0419 31.1681L37.2001 28.8L35.3583 26.4319C24.1817 35.1248 15.4883 45.9969 9.29152 59.0102L12.0001 60.3ZM37.2001 28.8L39.0479 31.1634C49.7054 22.8311 62.3427 16.5954 77.009 12.4889L76.2001 9.59999L75.3912 6.71111C60.0575 11.0045 46.6948 17.5689 35.3523 26.4366L37.2001 28.8ZM76.2001 9.59999L77.0343 12.4817C91.9261 8.1709 108.341 5.99998 126.3 5.99998V2.99998V-1.52588e-05C107.859 -1.52588e-05 90.8741 2.22908 75.3659 6.71831L76.2001 9.59999ZM126.3 2.99998V5.99998C147.837 5.99998 166.258 8.96518 181.635 14.8046L182.7 12L183.765 9.1954C167.542 3.03481 148.364 -1.52588e-05 126.3 -1.52588e-05V2.99998ZM182.7 12L181.647 14.809C197.242 20.6572 209.372 28.9794 218.182 39.7042L220.5 37.8L222.818 35.8958C213.228 24.2206 200.158 15.3428 183.753 9.19099L182.7 12ZM220.5 37.8L218.199 39.7247C226.973 50.2154 232.169 63.0324 233.715 78.3022L236.7 78L239.685 77.6977C238.031 61.3675 232.427 47.3845 222.801 35.8753L220.5 37.8ZM236.7 78V75H197.1V78V81H236.7V78ZM197.1 78L199.966 77.1129C197.22 68.2409 192.556 60.6018 185.986 54.2442L183.9 56.4L181.814 58.5558C187.644 64.1982 191.78 70.9591 194.234 78.8871L197.1 78ZM183.9 56.4L186.056 54.3137C179.667 47.7118 171.427 42.7801 161.449 39.4539L160.5 42.3L159.551 45.146C168.773 48.2199 176.133 52.6882 181.744 58.4863L183.9 56.4ZM160.5 42.3L161.449 39.4539C151.466 36.1263 139.73 34.5 126.3 34.5V37.5V40.5C139.27 40.5 150.334 42.0737 159.551 45.146L160.5 42.3ZM126.3 37.5V34.5C109.587 34.5 94.7785 37.1495 81.9399 42.5334L83.1001 45.3L84.2603 48.0666C96.2217 43.0505 110.213 40.5 126.3 40.5V37.5ZM83.1001 45.3L81.9782 42.5177C69.0873 47.7156 58.9887 55.5699 51.8193 66.1131L54.3001 67.8L56.7809 69.4869C63.2115 60.0301 72.3129 52.8844 84.222 48.0823L83.1001 45.3ZM54.3001 67.8L51.8353 66.0898C44.6154 76.495 41.1001 89.3274 41.1001 104.4H44.1001H47.1001C47.1001 90.2726 50.3848 78.705 56.7649 69.5102L54.3001 67.8ZM44.1001 104.4H41.1001C41.1001 119.282 44.62 132.012 51.8353 142.41L54.3001 140.7L56.7649 138.99C50.3802 129.788 47.1001 118.318 47.1001 104.4H44.1001ZM54.3001 140.7L51.8353 142.41C59.001 152.737 69.0824 160.575 81.9399 165.967L83.1001 163.2L84.2603 160.433C72.3178 155.425 63.1992 148.263 56.7649 138.99L54.3001 140.7ZM83.1001 163.2L81.9782 165.982C94.8056 171.155 109.6 173.7 126.3 173.7V170.7V167.7C110.2 167.7 96.1946 165.245 84.222 160.418L83.1001 163.2ZM126.3 170.7V173.7C139.727 173.7 151.372 172.074 161.167 168.74L160.2 165.9L159.233 163.06C150.228 166.126 139.273 167.7 126.3 167.7V170.7ZM160.2 165.9L161.149 168.746C171.106 165.427 179.335 160.608 185.721 154.221L183.6 152.1L181.479 149.979C175.866 155.592 168.494 159.973 159.251 163.054L160.2 165.9ZM183.6 152.1L185.686 154.256C192.216 147.937 196.974 140.54 199.932 132.091L197.1 131.1L194.269 130.109C191.626 137.66 187.384 144.263 181.514 149.944L183.6 152.1ZM197.1 131.1V134.1H236.7V131.1V128.1H197.1V131.1ZM275.63 201H272.63V204H275.63V201ZM275.63 6.89999V3.89999H272.63V6.89999H275.63ZM446.33 13.2L445.26 16.0026L445.29 16.0143L445.321 16.0252L446.33 13.2ZM472.43 32.4L469.977 34.1279L469.987 34.1412L469.996 34.1544L472.43 32.4ZM476.93 89.1L474.247 87.7583V87.7584L476.93 89.1ZM463.43 104.7L461.727 102.23L461.706 102.244L461.686 102.259L463.43 104.7ZM443.93 114L444.713 116.896L444.749 116.886L444.785 116.876L443.93 114ZM420.23 117.9L418.741 120.505L419.534 120.957L420.444 120.892L420.23 117.9ZM416.03 115.5L416.073 112.5L414.541 118.105L416.03 115.5ZM450.53 119.1L449.817 122.014L449.848 122.022L449.879 122.029L450.53 119.1ZM470.63 130.5L468.271 132.353L468.308 132.4L468.346 132.445L470.63 130.5ZM477.53 201V204H480.53V201H477.53ZM437.63 201H434.63V204H437.63V201ZM433.73 140.4L431.179 141.979L431.196 142.007L431.214 142.035L433.73 140.4ZM419.63 131.7L418.923 134.616L418.933 134.618L418.943 134.62L419.63 131.7ZM315.53 129.3V126.3H312.53V129.3H315.53ZM315.53 201V204H318.53V201H315.53ZM315.53 98.1H312.53V101.1H315.53V98.1ZM432.83 90L430.823 87.7701L430.804 87.787L430.786 87.8043L432.83 90ZM432.83 48L430.966 50.3505L430.985 50.3658L431.004 50.3808L432.83 48ZM315.53 41.1V38.1H312.53V41.1H315.53ZM275.63 201H278.63V6.89999H275.63H272.63V201H275.63ZM275.63 6.89999V9.89999H407.33V6.89999V3.89999H275.63V6.89999ZM407.33 6.89999V9.89999C422.06 9.89999 434.681 11.9634 445.26 16.0026L446.33 13.2L447.4 10.3973C435.979 6.03659 422.6 3.89999 407.33 3.89999V6.89999ZM446.33 13.2L445.321 16.0252C456.002 19.8399 464.171 25.8866 469.977 34.1279L472.43 32.4L474.882 30.6721C468.289 21.3134 459.058 14.5601 447.339 10.3748L446.33 13.2ZM472.43 32.4L469.996 34.1544C475.736 42.1157 478.73 52.5513 478.73 65.7H481.73H484.73C484.73 51.6486 481.524 39.8843 474.863 30.6456L472.43 32.4ZM481.73 65.7H478.73C478.73 74.5631 477.187 81.8766 474.247 87.7583L476.93 89.1L479.613 90.4416C483.072 83.5234 484.73 75.2369 484.73 65.7H481.73ZM476.93 89.1L474.247 87.7584C471.269 93.7131 467.103 98.5223 461.727 102.23L463.43 104.7L465.133 107.17C471.356 102.878 476.19 97.2869 479.613 90.4416L476.93 89.1ZM463.43 104.7L461.686 102.259C456.387 106.044 450.195 109.008 443.075 111.124L443.93 114L444.785 116.876C452.465 114.592 459.273 111.356 465.174 107.141L463.43 104.7ZM443.93 114L443.147 111.104C435.95 113.049 428.242 114.32 420.016 114.908L420.23 117.9L420.444 120.892C429.017 120.28 437.109 118.951 444.713 116.896L443.93 114ZM420.23 117.9L421.718 115.295L417.518 112.895L416.03 115.5L414.541 118.105L418.741 120.505L420.23 117.9ZM416.03 115.5L415.987 118.5C429.863 118.698 441.118 119.888 449.817 122.014L450.53 119.1L451.242 116.186C441.942 113.912 430.196 112.702 416.073 112.5L416.03 115.5ZM450.53 119.1L449.879 122.029C458.405 123.923 464.411 127.442 468.271 132.353L470.63 130.5L472.989 128.647C468.048 122.358 460.655 118.277 451.181 116.171L450.53 119.1ZM470.63 130.5L468.346 132.445C472.295 137.081 474.53 144.355 474.53 154.8H477.53H480.53C480.53 143.645 478.164 134.719 472.914 128.555L470.63 130.5ZM477.53 154.8H474.53V201H477.53H480.53V154.8H477.53ZM477.53 201V198H437.63V201V204H477.53V201ZM437.63 201H440.63V157.5H437.63H434.63V201H437.63ZM437.63 157.5H440.63C440.63 149.815 439.291 143.451 436.245 138.765L433.73 140.4L431.214 142.035C433.369 145.349 434.63 150.385 434.63 157.5H437.63ZM433.73 140.4L436.281 138.821C433.114 133.706 427.567 130.486 420.317 128.78L419.63 131.7L418.943 134.62C425.293 136.114 429.146 138.694 431.179 141.979L433.73 140.4ZM419.63 131.7L420.337 128.784C413.386 127.099 403.502 126.3 390.83 126.3V129.3V132.3C403.357 132.3 412.673 133.101 418.923 134.616L419.63 131.7ZM390.83 129.3V126.3H315.53V129.3V132.3H390.83V129.3ZM315.53 129.3H312.53V201H315.53H318.53V129.3H315.53ZM315.53 201V198H275.63V201V204H315.53V201ZM315.53 98.1V101.1H407.33V98.1V95.1H315.53V98.1ZM407.33 98.1V101.1C418.975 101.1 428.325 98.2927 434.874 92.1957L432.83 90L430.786 87.8043C425.734 92.5073 418.085 95.1 407.33 95.1V98.1ZM432.83 90L434.837 92.2299C441.56 86.1786 444.83 78.019 444.83 68.1H441.83H438.83C438.83 76.581 436.099 83.0214 430.823 87.7701L432.83 90ZM441.83 68.1H444.83C444.83 58.5398 441.523 50.8844 434.655 45.6192L432.83 48L431.004 50.3808C436.137 54.3155 438.83 60.0602 438.83 68.1H441.83ZM432.83 48L434.694 45.6495C428.152 40.4612 418.876 38.1 407.33 38.1V41.1V44.1C418.184 44.1 425.907 46.3388 430.966 50.3505L432.83 48ZM407.33 41.1V38.1H315.53V41.1V44.1H407.33V41.1ZM315.53 41.1H312.53V98.1H315.53H318.53V41.1H315.53ZM563.381 120V117H560.381V120H563.381ZM563.381 167.7H560.381V170.7H563.381V167.7ZM713.081 167.7H716.081V164.7H713.081V167.7ZM713.081 201V204H716.081V201H713.081ZM523.481 201H520.481V204H523.481V201ZM523.481 6.89999V3.89999H520.481V6.89999H523.481ZM712.781 6.89999H715.781V3.89999H712.781V6.89999ZM712.781 40.2V43.2H715.781V40.2H712.781ZM563.381 40.2V37.2H560.381V40.2H563.381ZM563.381 88.5H560.381V91.5H563.381V88.5ZM685.781 88.5H688.781V85.5H685.781V88.5ZM685.781 120V123H688.781V120H685.781ZM563.381 120H560.381V167.7H563.381H566.381V120H563.381ZM563.381 167.7V170.7H713.081V167.7V164.7H563.381V167.7ZM713.081 167.7H710.081V201H713.081H716.081V167.7H713.081ZM713.081 201V198H523.481V201V204H713.081V201ZM523.481 201H526.481V6.89999H523.481H520.481V201H523.481ZM523.481 6.89999V9.89999H712.781V6.89999V3.89999H523.481V6.89999ZM712.781 6.89999H709.781V40.2H712.781H715.781V6.89999H712.781ZM712.781 40.2V37.2H563.381V40.2V43.2H712.781V40.2ZM563.381 40.2H560.381V88.5H563.381H566.381V40.2H563.381ZM563.381 88.5V91.5H685.781V88.5V85.5H563.381V88.5ZM685.781 88.5H682.781V120H685.781H688.781V88.5H685.781ZM685.781 120V117H563.381V120V123H685.781V120ZM784.348 158.7H781.348V161.7H784.348V158.7ZM784.348 125.4V122.4H781.348V125.4H784.348ZM912.748 125.4H915.748V122.4H912.748V125.4ZM912.748 158.7V161.7H915.748V158.7H912.748ZM736.048 201L733.333 199.724L731.324 204H736.048V201ZM827.248 6.89999V3.89999H825.343L824.533 5.62422L827.248 6.89999ZM870.448 6.89999L873.158 5.61394L872.345 3.89999H870.448V6.89999ZM962.548 201V204H967.292L965.258 199.714L962.548 201ZM919.048 201L916.318 202.245L917.119 204H919.048V201ZM839.248 26.1V23.1H834.581L836.518 27.3453L839.248 26.1ZM858.448 26.1L861.181 27.3375L863.099 23.1H858.448V26.1ZM779.248 201V204H781.182L781.981 202.238L779.248 201ZM784.348 158.7H787.348V125.4H784.348H781.348V158.7H784.348ZM784.348 125.4V128.4H912.748V125.4V122.4H784.348V125.4ZM912.748 125.4H909.748V158.7H912.748H915.748V125.4H912.748ZM912.748 158.7V155.7H784.348V158.7V161.7H912.748V158.7ZM736.048 201L738.763 202.276L829.963 8.17577L827.248 6.89999L824.533 5.62422L733.333 199.724L736.048 201ZM827.248 6.89999V9.89999H870.448V6.89999V3.89999H827.248V6.89999ZM870.448 6.89999L867.737 8.18605L959.837 202.286L962.548 201L965.258 199.714L873.158 5.61394L870.448 6.89999ZM962.548 201V198H919.048V201V204H962.548V201ZM919.048 201L921.777 199.755L841.977 24.8547L839.248 26.1L836.518 27.3453L916.318 202.245L919.048 201ZM839.248 26.1V29.1H858.448V26.1V23.1H839.248V26.1ZM858.448 26.1L855.715 24.8625L776.515 199.762L779.248 201L781.981 202.238L861.181 27.3375L858.448 26.1ZM779.248 201V198H736.048V201V204H779.248V201ZM949.057 6.89999V3.89999H946.057V6.89999H949.057ZM1153.66 6.89999H1156.66V3.89999H1153.66V6.89999ZM1153.66 40.2V43.2H1156.66V40.2H1153.66ZM949.057 40.2H946.057V43.2H949.057V40.2ZM1031.56 36V33H1028.56V36H1031.56ZM1071.46 36H1074.46V33H1071.46V36ZM1071.46 201V204H1074.46V201H1071.46ZM1031.56 201H1028.56V204H1031.56V201ZM949.057 6.89999V9.89999H1153.66V6.89999V3.89999H949.057V6.89999ZM1153.66 6.89999H1150.66V40.2H1153.66H1156.66V6.89999H1153.66ZM1153.66 40.2V37.2H949.057V40.2V43.2H1153.66V40.2ZM949.057 40.2H952.057V6.89999H949.057H946.057V40.2H949.057ZM1031.56 36V39H1071.46V36V33H1031.56V36ZM1071.46 36H1068.46V201H1071.46H1074.46V36H1071.46ZM1071.46 201V198H1031.56V201V204H1071.46V201ZM1031.56 201H1034.56V36H1031.56H1028.56V201H1031.56ZM1216.92 192.9L1215.69 195.635L1215.71 195.643L1215.72 195.651L1216.92 192.9ZM1174.92 158.1L1172.39 159.717L1172.4 159.729L1172.41 159.741L1174.92 158.1ZM1174.92 49.8L1172.41 48.1591L1172.4 48.171L1172.39 48.1828L1174.92 49.8ZM1216.92 15.3L1218.13 18.0464L1218.13 18.0433L1218.14 18.0402L1216.92 15.3ZM1349.52 15.3L1348.29 18.0352L1348.3 18.0408L1348.31 18.0464L1349.52 15.3ZM1391.22 49.8L1388.69 51.4172L1388.7 51.429L1388.71 51.4408L1391.22 49.8ZM1391.22 158.1L1388.71 156.459L1388.7 156.471L1388.69 156.483L1391.22 158.1ZM1349.52 192.9L1350.73 195.646L1350.74 195.641L1350.75 195.635L1349.52 192.9ZM1325.22 163.2L1324.12 160.408L1324.11 160.411L1324.11 160.415L1325.22 163.2ZM1353.72 141.3L1351.28 139.556L1351.27 139.573L1351.25 139.59L1353.72 141.3ZM1353.72 66.9L1351.25 68.6102L1351.27 68.627L1351.28 68.6437L1353.72 66.9ZM1325.22 45L1324.07 47.7692L1324.09 47.7807L1324.12 47.7917L1325.22 45ZM1240.92 45L1242 47.7977L1242.02 47.7901L1242.04 47.7823L1240.92 45ZM1211.82 141.3L1214.26 139.556V139.556L1211.82 141.3ZM1240.92 163.2L1239.84 165.998V165.998L1240.92 163.2ZM1283.22 204.9V201.9C1257.72 201.9 1236.05 197.945 1218.12 190.149L1216.92 192.9L1215.72 195.651C1234.59 203.855 1257.12 207.9 1283.22 207.9V204.9ZM1216.92 192.9L1218.15 190.165C1200.41 182.172 1186.88 170.926 1177.43 156.459L1174.92 158.1L1172.41 159.741C1182.56 175.274 1197.03 187.228 1215.69 195.635L1216.92 192.9ZM1174.92 158.1L1177.45 156.483C1168.21 142.047 1163.52 124.631 1163.52 104.1H1160.52H1157.52C1157.52 125.569 1162.43 144.153 1172.39 159.717L1174.92 158.1ZM1160.52 104.1H1163.52C1163.52 83.3626 1168.21 65.849 1177.45 51.4172L1174.92 49.8L1172.39 48.1828C1162.43 63.751 1157.52 82.4374 1157.52 104.1H1160.52ZM1174.92 49.8L1177.43 51.4408C1186.88 36.9806 1200.4 25.8388 1218.13 18.0464L1216.92 15.3L1215.71 12.5536C1197.04 20.7612 1182.56 32.6194 1172.41 48.1591L1174.92 49.8ZM1216.92 15.3L1218.14 18.0402C1236.06 10.0524 1257.73 5.99998 1283.22 5.99998V2.99998V-1.52588e-05C1257.11 -1.52588e-05 1234.57 4.14761 1215.7 12.5598L1216.92 15.3ZM1283.22 2.99998V5.99998C1308.92 5.99998 1330.57 10.054 1348.29 18.0352L1349.52 15.3L1350.75 12.5648C1332.07 4.14595 1309.52 -1.52588e-05 1283.22 -1.52588e-05V2.99998ZM1349.52 15.3L1348.31 18.0464C1366.04 25.837 1379.45 36.9723 1388.69 51.4172L1391.22 49.8L1393.75 48.1828C1383.79 32.6276 1369.4 20.7629 1350.73 12.5536L1349.52 15.3ZM1391.22 49.8L1388.71 51.4408C1398.13 65.8694 1402.92 83.3742 1402.92 104.1H1405.92H1408.92C1408.92 82.4258 1403.9 63.7306 1393.73 48.1591L1391.22 49.8ZM1405.92 104.1H1402.92C1402.92 124.619 1398.14 142.026 1388.71 156.459L1391.22 158.1L1393.73 159.741C1403.9 144.174 1408.92 125.581 1408.92 104.1H1405.92ZM1391.22 158.1L1388.69 156.483C1379.44 170.935 1366.02 182.174 1348.29 190.165L1349.52 192.9L1350.75 195.635C1369.42 187.226 1383.8 175.265 1393.75 159.717L1391.22 158.1ZM1349.52 192.9L1348.31 190.154C1330.59 197.943 1308.93 201.9 1283.22 201.9V204.9V207.9C1309.51 207.9 1332.05 203.857 1350.73 195.646L1349.52 192.9ZM1283.22 170.4V173.4C1299.51 173.4 1313.91 170.956 1326.33 165.985L1325.22 163.2L1324.11 160.415C1312.53 165.044 1298.93 167.4 1283.22 167.4V170.4ZM1325.22 163.2L1326.32 165.992C1339.01 160.997 1349.01 153.346 1356.18 143.01L1353.72 141.3L1351.25 139.59C1344.83 148.854 1335.83 155.803 1324.12 160.408L1325.22 163.2ZM1353.72 141.3L1356.16 143.044C1363.61 132.622 1367.22 119.57 1367.22 104.1H1364.22H1361.22C1361.22 118.63 1357.83 130.378 1351.28 139.556L1353.72 141.3ZM1364.22 104.1H1367.22C1367.22 88.6299 1363.61 75.5782 1356.16 65.1563L1353.72 66.9L1351.28 68.6437C1357.83 77.8218 1361.22 89.5701 1361.22 104.1H1364.22ZM1353.72 66.9L1356.18 65.1897C1349.01 54.854 1339.01 47.2032 1326.32 42.2083L1325.22 45L1324.12 47.7917C1335.83 52.3968 1344.83 59.346 1351.25 68.6102L1353.72 66.9ZM1325.22 45L1326.37 42.2308C1313.93 37.0477 1299.53 34.5 1283.22 34.5V37.5V40.5C1298.91 40.5 1312.51 42.9523 1324.07 47.7692L1325.22 45ZM1283.22 37.5V34.5C1267.1 34.5 1252.61 37.0503 1239.8 42.2177L1240.92 45L1242.04 47.7823C1254.03 42.9497 1267.74 40.5 1283.22 40.5V37.5ZM1240.92 45L1239.84 42.2023C1226.95 47.1908 1216.75 54.831 1209.38 65.1563L1211.82 66.9L1214.26 68.6437C1220.89 59.369 1230.09 52.4092 1242 47.7977L1240.92 45ZM1211.82 66.9L1209.38 65.1563C1201.93 75.5782 1198.32 88.6299 1198.32 104.1H1201.32H1204.32C1204.32 89.5701 1207.71 77.8218 1214.26 68.6437L1211.82 66.9ZM1201.32 104.1H1198.32C1198.32 119.57 1201.93 132.622 1209.38 143.044L1211.82 141.3L1214.26 139.556C1207.71 130.378 1204.32 118.63 1204.32 104.1H1201.32ZM1211.82 141.3L1209.38 143.044C1216.75 153.369 1226.95 161.009 1239.84 165.998L1240.92 163.2L1242 160.402C1230.09 155.791 1220.89 148.831 1214.26 139.556L1211.82 141.3ZM1240.92 163.2L1239.84 165.998C1252.64 170.954 1267.12 173.4 1283.22 173.4V170.4V167.4C1267.72 167.4 1254 165.046 1242 160.402L1240.92 163.2ZM1444.87 201H1441.87V204H1444.87V201ZM1444.87 6.89999V3.89999H1441.87V6.89999H1444.87ZM1615.57 13.2L1614.5 16.0026L1614.53 16.0143L1614.56 16.0252L1615.57 13.2ZM1641.67 32.4L1639.22 34.1279L1639.22 34.1412L1639.23 34.1544L1641.67 32.4ZM1646.17 89.1L1643.48 87.7583V87.7584L1646.17 89.1ZM1632.67 104.7L1630.96 102.23L1630.94 102.244L1630.92 102.259L1632.67 104.7ZM1613.17 114L1613.95 116.896L1613.99 116.886L1614.02 116.876L1613.17 114ZM1589.47 117.9L1587.98 120.505L1588.77 120.957L1589.68 120.892L1589.47 117.9ZM1585.27 115.5L1585.31 112.5L1583.78 118.105L1585.27 115.5ZM1619.77 119.1L1619.06 122.014L1619.09 122.022L1619.12 122.029L1619.77 119.1ZM1639.87 130.5L1637.51 132.353L1637.55 132.4L1637.58 132.445L1639.87 130.5ZM1646.77 201V204H1649.77V201H1646.77ZM1606.87 201H1603.87V204H1606.87V201ZM1602.97 140.4L1600.42 141.979L1600.43 142.007L1600.45 142.035L1602.97 140.4ZM1588.87 131.7L1588.16 134.616L1588.17 134.618L1588.18 134.62L1588.87 131.7ZM1484.77 129.3V126.3H1481.77V129.3H1484.77ZM1484.77 201V204H1487.77V201H1484.77ZM1484.77 98.1H1481.77V101.1H1484.77V98.1ZM1602.07 90L1600.06 87.7701L1600.04 87.787L1600.02 87.8043L1602.07 90ZM1602.07 48L1600.2 50.3505L1600.22 50.3658L1600.24 50.3808L1602.07 48ZM1484.77 41.1V38.1H1481.77V41.1H1484.77ZM1444.87 201H1447.87V6.89999H1444.87H1441.87V201H1444.87ZM1444.87 6.89999V9.89999H1576.57V6.89999V3.89999H1444.87V6.89999ZM1576.57 6.89999V9.89999C1591.3 9.89999 1603.92 11.9634 1614.5 16.0026L1615.57 13.2L1616.64 10.3973C1605.22 6.03659 1591.84 3.89999 1576.57 3.89999V6.89999ZM1615.57 13.2L1614.56 16.0252C1625.24 19.8399 1633.41 25.8866 1639.22 34.1279L1641.67 32.4L1644.12 30.6721C1637.53 21.3134 1628.3 14.5601 1616.58 10.3748L1615.57 13.2ZM1641.67 32.4L1639.23 34.1544C1644.97 42.1157 1647.97 52.5513 1647.97 65.7H1650.97H1653.97C1653.97 51.6486 1650.76 39.8843 1644.1 30.6456L1641.67 32.4ZM1650.97 65.7H1647.97C1647.97 74.5631 1646.43 81.8766 1643.48 87.7583L1646.17 89.1L1648.85 90.4416C1652.31 83.5234 1653.97 75.2369 1653.97 65.7H1650.97ZM1646.17 89.1L1643.48 87.7584C1640.51 93.7131 1636.34 98.5223 1630.96 102.23L1632.67 104.7L1634.37 107.17C1640.59 102.878 1645.43 97.2869 1648.85 90.4416L1646.17 89.1ZM1632.67 104.7L1630.92 102.259C1625.63 106.044 1619.43 109.008 1612.31 111.124L1613.17 114L1614.02 116.876C1621.7 114.592 1628.51 111.356 1634.41 107.141L1632.67 104.7ZM1613.17 114L1612.39 111.104C1605.19 113.049 1597.48 114.32 1589.25 114.908L1589.47 117.9L1589.68 120.892C1598.26 120.28 1606.35 118.951 1613.95 116.896L1613.17 114ZM1589.47 117.9L1590.96 115.295L1586.76 112.895L1585.27 115.5L1583.78 118.105L1587.98 120.505L1589.47 117.9ZM1585.27 115.5L1585.23 118.5C1599.1 118.698 1610.36 119.888 1619.06 122.014L1619.77 119.1L1620.48 116.186C1611.18 113.912 1599.43 112.702 1585.31 112.5L1585.27 115.5ZM1619.77 119.1L1619.12 122.029C1627.64 123.923 1633.65 127.442 1637.51 132.353L1639.87 130.5L1642.23 128.647C1637.29 122.358 1629.89 118.277 1620.42 116.171L1619.77 119.1ZM1639.87 130.5L1637.58 132.445C1641.53 137.081 1643.77 144.355 1643.77 154.8H1646.77H1649.77C1649.77 143.645 1647.4 134.719 1642.15 128.555L1639.87 130.5ZM1646.77 154.8H1643.77V201H1646.77H1649.77V154.8H1646.77ZM1646.77 201V198H1606.87V201V204H1646.77V201ZM1606.87 201H1609.87V157.5H1606.87H1603.87V201H1606.87ZM1606.87 157.5H1609.87C1609.87 149.815 1608.53 143.451 1605.48 138.765L1602.97 140.4L1600.45 142.035C1602.61 145.349 1603.87 150.385 1603.87 157.5H1606.87ZM1602.97 140.4L1605.52 138.821C1602.35 133.706 1596.81 130.486 1589.56 128.78L1588.87 131.7L1588.18 134.62C1594.53 136.114 1598.38 138.694 1600.42 141.979L1602.97 140.4ZM1588.87 131.7L1589.57 128.784C1582.62 127.099 1572.74 126.3 1560.07 126.3V129.3V132.3C1572.6 132.3 1581.91 133.101 1588.16 134.616L1588.87 131.7ZM1560.07 129.3V126.3H1484.77V129.3V132.3H1560.07V129.3ZM1484.77 129.3H1481.77V201H1484.77H1487.77V129.3H1484.77ZM1484.77 201V198H1444.87V201V204H1484.77V201ZM1484.77 98.1V101.1H1576.57V98.1V95.1H1484.77V98.1ZM1576.57 98.1V101.1C1588.21 101.1 1597.56 98.2927 1604.11 92.1957L1602.07 90L1600.02 87.8043C1594.97 92.5073 1587.32 95.1 1576.57 95.1V98.1ZM1602.07 90L1604.07 92.2299C1610.8 86.1786 1614.07 78.019 1614.07 68.1H1611.07H1608.07C1608.07 76.581 1605.34 83.0214 1600.06 87.7701L1602.07 90ZM1611.07 68.1H1614.07C1614.07 58.5398 1610.76 50.8844 1603.89 45.6192L1602.07 48L1600.24 50.3808C1605.38 54.3155 1608.07 60.0602 1608.07 68.1H1611.07ZM1602.07 48L1603.93 45.6495C1597.39 40.4612 1588.11 38.1 1576.57 38.1V41.1V44.1C1587.42 44.1 1595.15 46.3388 1600.2 50.3505L1602.07 48ZM1576.57 41.1V38.1H1484.77V41.1V44.1H1576.57V41.1ZM1484.77 41.1H1481.77V98.1H1484.77H1487.77V41.1H1484.77ZM1679.82 135.6V132.6H1677.05L1676.83 135.361L1679.82 135.6ZM1720.32 135.6L1723.3 135.249L1722.99 132.6H1720.32V135.6ZM1729.62 154.2L1727.46 156.282L1727.5 156.322L1727.54 156.36L1729.62 154.2ZM1751.52 167.1L1750.51 169.927L1750.54 169.937L1750.57 169.946L1751.52 167.1ZM1807.02 168.3L1807.97 171.146V171.146L1807.02 168.3ZM1821.72 159L1824.06 160.874V160.874L1821.72 159ZM1820.52 132.3L1818.72 134.7L1818.76 134.729L1818.8 134.758L1820.52 132.3ZM1801.62 125.1L1800.94 128.022L1800.97 128.03L1801.01 128.036L1801.62 125.1ZM1767.72 119.1L1767.29 122.069L1767.3 122.07L1767.72 119.1ZM1736.52 112.5L1735.64 115.369L1735.67 115.377L1735.7 115.385L1736.52 112.5ZM1710.42 101.1L1708.84 103.648L1708.85 103.657L1708.87 103.667L1710.42 101.1ZM1692.72 84.3L1690.17 85.8765L1690.19 85.9208L1690.22 85.9641L1692.72 84.3ZM1696.02 30.3L1693.64 28.4735L1693.63 28.4911L1693.61 28.509L1696.02 30.3ZM1725.12 10.2L1724.07 7.39101V7.39101L1725.12 10.2ZM1836.72 21L1834.85 23.3426L1834.86 23.3563L1834.88 23.3697L1836.72 21ZM1858.92 69.9V72.9H1861.86L1861.92 69.9577L1858.92 69.9ZM1819.92 69.9L1816.93 70.1029L1817.12 72.9H1819.92V69.9ZM1804.92 44.4L1803.42 46.9976L1803.43 47.0047L1803.44 47.0117L1804.92 44.4ZM1738.92 42.3L1737.68 39.5667L1737.67 39.5723L1737.66 39.578L1738.92 42.3ZM1729.62 71.4L1727.18 73.1437L1727.21 73.187L1727.24 73.2291L1729.62 71.4ZM1739.82 78.3L1738.67 81.0692V81.0692L1739.82 78.3ZM1759.32 84L1759.96 81.0698V81.0698L1759.32 84ZM1789.92 89.4L1789.48 92.3679L1789.49 92.3694L1789.5 92.3709L1789.92 89.4ZM1820.82 96L1819.95 98.87L1819.98 98.8812L1820.02 98.8914L1820.82 96ZM1844.82 106.5L1843.16 108.996L1843.2 109.025L1843.24 109.052L1844.82 106.5ZM1856.52 177.9L1854.07 176.172L1854.06 176.183L1856.52 177.9ZM1828.32 198L1827.27 195.191L1827.26 195.194L1827.25 195.197L1828.32 198ZM1741.02 200.7L1740.18 203.581L1740.21 203.588L1740.23 203.594L1741.02 200.7ZM1712.52 188.1L1710.88 190.615V190.615L1712.52 188.1ZM1693.02 171L1690.68 172.883V172.883L1693.02 171ZM1682.22 152.4L1679.36 153.321L1679.38 153.362L1679.39 153.403L1682.22 152.4ZM1679.82 135.6V138.6H1720.32V135.6V132.6H1679.82V135.6ZM1720.32 135.6L1717.34 135.951C1718.23 143.489 1721.67 150.278 1727.46 156.282L1729.62 154.2L1731.78 152.118C1726.77 146.922 1724.01 141.311 1723.3 135.249L1720.32 135.6ZM1729.62 154.2L1727.54 156.36C1733.51 162.116 1741.2 166.615 1750.51 169.927L1751.52 167.1L1752.52 164.273C1743.84 161.185 1736.93 157.084 1731.7 152.04L1729.62 154.2ZM1751.52 167.1L1750.57 169.946C1759.93 173.065 1770.35 174.6 1781.82 174.6V171.6V168.6C1770.89 168.6 1761.11 167.135 1752.47 164.254L1751.52 167.1ZM1781.82 171.6V174.6C1792.21 174.6 1800.96 173.484 1807.97 171.146L1807.02 168.3L1806.07 165.454C1799.88 167.516 1791.83 168.6 1781.82 168.6V171.6ZM1807.02 168.3L1807.97 171.146C1814.93 168.827 1820.39 165.46 1824.06 160.874L1821.72 159L1819.38 157.126C1816.65 160.54 1812.31 163.373 1806.07 165.454L1807.02 168.3ZM1821.72 159L1824.06 160.874C1827.73 156.292 1829.52 150.814 1829.52 144.6H1826.52H1823.52C1823.52 149.586 1822.11 153.708 1819.38 157.126L1821.72 159ZM1826.52 144.6H1829.52C1829.52 138.342 1827.14 133.27 1822.24 129.842L1820.52 132.3L1818.8 134.758C1821.9 136.93 1823.52 140.058 1823.52 144.6H1826.52ZM1820.52 132.3L1822.32 129.9C1817.8 126.507 1810.99 123.995 1802.23 122.164L1801.62 125.1L1801.01 128.036C1809.45 129.805 1815.24 132.093 1818.72 134.7L1820.52 132.3ZM1801.62 125.1L1802.3 122.178C1793.58 120.15 1782.19 118.136 1768.14 116.13L1767.72 119.1L1767.3 122.07C1781.25 124.064 1792.46 126.05 1800.94 128.022L1801.62 125.1ZM1767.72 119.1L1768.15 116.131C1757.27 114.549 1747 112.376 1737.34 109.615L1736.52 112.5L1735.7 115.385C1745.64 118.224 1756.17 120.451 1767.29 122.069L1767.72 119.1ZM1736.52 112.5L1737.4 109.631C1727.8 106.693 1719.33 102.987 1711.97 98.5335L1710.42 101.1L1708.87 103.667C1716.71 108.413 1725.64 112.307 1735.64 115.369L1736.52 112.5ZM1710.42 101.1L1712 98.5521C1704.93 94.1558 1699.36 88.8458 1695.22 82.6359L1692.72 84.3L1690.22 85.9641C1694.88 92.9542 1701.11 98.8442 1708.84 103.648L1710.42 101.1ZM1692.72 84.3L1695.27 82.7235C1691.41 76.4653 1689.42 69.029 1689.42 60.3H1686.42H1683.42C1683.42 69.971 1685.63 78.5347 1690.17 85.8765L1692.72 84.3ZM1686.42 60.3H1689.42C1689.42 49.5017 1692.44 40.1395 1698.43 32.091L1696.02 30.3L1693.61 28.509C1686.8 37.6605 1683.42 48.2983 1683.42 60.3H1686.42ZM1696.02 30.3L1698.4 32.1264C1704.58 24.0743 1713.76 17.663 1726.17 13.009L1725.12 10.2L1724.07 7.39101C1710.88 12.337 1700.66 19.3257 1693.64 28.4735L1696.02 30.3ZM1725.12 10.2L1726.17 13.009C1738.54 8.3718 1753.86 5.99998 1772.22 5.99998V2.99998V-1.52588e-05C1753.38 -1.52588e-05 1737.3 2.42819 1724.07 7.39101L1725.12 10.2ZM1772.22 2.99998V5.99998C1799.84 5.99998 1820.57 11.9247 1834.85 23.3426L1836.72 21L1838.59 18.6574C1822.87 6.07529 1800.6 -1.52588e-05 1772.22 -1.52588e-05V2.99998ZM1836.72 21L1834.88 23.3697C1849.26 34.5364 1856.3 49.9 1855.92 69.8423L1858.92 69.9L1861.92 69.9577C1862.34 48.3 1854.58 31.0636 1838.56 18.6303L1836.72 21ZM1858.92 69.9V66.9H1819.92V69.9V72.9H1858.92V69.9ZM1819.92 69.9L1822.91 69.6971C1822.05 57.0313 1816.59 47.5508 1806.4 41.7883L1804.92 44.4L1803.44 47.0117C1811.65 51.6492 1816.19 59.1687 1816.93 70.1029L1819.92 69.9ZM1804.92 44.4L1806.42 41.8024C1796.84 36.2661 1784.88 33.6 1770.72 33.6V36.6V39.6C1784.16 39.6 1795 42.1338 1803.42 46.9976L1804.92 44.4ZM1770.72 36.6V33.6C1757.65 33.6 1746.59 35.5366 1737.68 39.5667L1738.92 42.3L1740.16 45.0333C1748.05 41.4634 1758.19 39.6 1770.72 39.6V36.6ZM1738.92 42.3L1737.66 39.578C1733.13 41.6776 1729.57 44.6047 1727.16 48.4245C1724.75 52.2408 1723.62 56.7463 1723.62 61.8H1726.62H1729.62C1729.62 57.6537 1730.54 54.3092 1732.23 51.6255C1733.92 48.9452 1736.51 46.7224 1740.18 45.0219L1738.92 42.3ZM1726.62 61.8H1723.62C1723.62 65.9945 1724.8 69.8104 1727.18 73.1437L1729.62 71.4L1732.06 69.6563C1730.44 67.3896 1729.62 64.8055 1729.62 61.8H1726.62ZM1729.62 71.4L1727.24 73.2291C1729.7 76.4189 1733.64 78.9745 1738.67 81.0692L1739.82 78.3L1740.97 75.5308C1736.4 73.6254 1733.54 71.5811 1732 69.5709L1729.62 71.4ZM1739.82 78.3L1738.67 81.0692C1743.7 83.1667 1750.39 85.1122 1758.68 86.9302L1759.32 84L1759.96 81.0698C1751.85 79.2878 1745.54 77.4333 1740.97 75.5308L1739.82 78.3ZM1759.32 84L1758.68 86.9302C1766.97 88.7503 1777.24 90.5619 1789.48 92.3679L1789.92 89.4L1790.36 86.4321C1778.2 84.6381 1768.07 82.8497 1759.96 81.0698L1759.32 84ZM1789.92 89.4L1789.5 92.3709C1800.78 93.9533 1810.92 96.1233 1819.95 98.87L1820.82 96L1821.69 93.13C1812.32 90.2767 1801.86 88.0467 1790.34 86.4291L1789.92 89.4ZM1820.82 96L1820.02 98.8914C1829.18 101.425 1836.87 104.808 1843.16 108.996L1844.82 106.5L1846.48 104.004C1839.57 99.3918 1831.26 95.7748 1821.62 93.1086L1820.82 96ZM1844.82 106.5L1843.24 109.052C1849.63 112.996 1854.45 118.023 1857.79 124.137L1860.42 122.7L1863.05 121.263C1859.19 114.177 1853.61 108.404 1846.4 103.948L1844.82 106.5ZM1860.42 122.7L1857.79 124.137C1861.09 130.19 1862.82 137.766 1862.82 147H1865.82H1868.82C1868.82 137.034 1866.95 128.41 1863.05 121.263L1860.42 122.7ZM1865.82 147H1862.82C1862.82 158.244 1859.88 167.927 1854.07 176.172L1856.52 177.9L1858.97 179.628C1865.56 170.273 1868.82 159.356 1868.82 147H1865.82ZM1856.52 177.9L1854.06 176.183C1848.5 184.154 1839.67 190.54 1827.27 195.191L1828.32 198L1829.37 200.809C1842.57 195.86 1852.54 188.846 1858.98 179.617L1856.52 177.9ZM1828.32 198L1827.25 195.197C1815.12 199.819 1799.12 202.2 1779.12 202.2V205.2V208.2C1799.52 208.2 1816.32 205.781 1829.39 200.803L1828.32 198ZM1779.12 205.2V202.2C1764.92 202.2 1752.49 200.72 1741.81 197.806L1741.02 200.7L1740.23 203.594C1751.54 206.68 1764.52 208.2 1779.12 208.2V205.2ZM1741.02 200.7L1741.86 197.819C1731.09 194.686 1721.86 190.596 1714.15 185.585L1712.52 188.1L1710.88 190.615C1719.17 196.004 1728.95 200.314 1740.18 203.581L1741.02 200.7ZM1712.52 188.1L1714.15 185.585C1706.37 180.524 1700.12 175.027 1695.35 169.117L1693.02 171L1690.68 172.883C1695.92 179.373 1702.67 185.276 1710.88 190.615L1712.52 188.1ZM1693.02 171L1695.35 169.117C1690.52 163.126 1687.11 157.219 1685.05 151.397L1682.22 152.4L1679.39 153.403C1681.73 159.981 1685.52 166.474 1690.68 172.883L1693.02 171ZM1682.22 152.4L1685.07 151.479C1683.16 145.547 1682.45 140.349 1682.81 135.839L1679.82 135.6L1676.83 135.361C1676.39 140.851 1677.28 146.853 1679.36 153.321L1682.22 152.4Z" fill="white" mask="url(#path-1-outside-1_19_184)"/>
</svg>
